PathFileType	4	(X/Y/Z)	C:\Users\WrightLab\Desktop\Jo\P1.2Trial8.trc
DataRate	CameraRate	NumFrames	NumMarkers	Units	OrigDataRate	OrigDataStartFrame	OrigNumFrames
100.00	100.00	       72	19	mm	100.00	1	       946
Frame#	Time	Headset_Front			Headset_Back			Headset_Left			Headset_Right			Left_Shoulder			Right_Shoulder			Sternum			C7			Left Elbow			Right Elbow			Left Wrist			Right Wrist			Left ASIS			Right ASIS			S2			Left Knee			Right Knee			Left Ankle			Right Ankle			
		X1	Y1	Z1	X2	Y2	Z2	X3	Y3	Z3	X4	Y4	Z4	X5	Y5	Z5	X6	Y6	Z6	X7	Y7	Z7	X8	Y8	Z8	X9	Y9	Z9	X10	Y10	Z10	X11	Y11	Z11	X12	Y12	Z12	X13	Y13	Z13	X14	Y14	Z14	X15	Y15	Z15	X16	Y16	Z16	X17	Y17	Z17	X18	Y18	Z18	X19	Y19	Z19	

1	0.000																																		-267.26547	1001.64362	2119.98779																						
2	0.010																																		-268.99902	999.87268	2118.95728																						
3	0.020																																		-271.56799	998.42444	2117.87207																						
4	0.030																																		-273.23718	996.94427	2117.50562																						
5	0.040																																		-275.22058	995.11426	2117.45728																						
6	0.050																																		-277.67175	993.42188	2115.48755																						
7	0.060																																		-279.13727	991.95544	2115.83252																						
8	0.070																																		-281.44681	990.03607	2115.35034																						
9	0.080																																		-283.36548	988.13049	2114.47192																						
10	0.090																																		-285.02451	986.58960	2115.01685																						
11	0.100																																		-287.09628	984.67566	2113.65625																						
12	0.110																																		-288.72159	982.42761	2113.64258																						
13	0.120																																		-290.41928	981.14203	2113.22949																						
14	0.130																																		-292.47543	978.74365	2113.88110																						
15	0.140																																		-293.83777	976.78046	2112.33350																						
16	0.150																																		-295.05734	974.60327	2113.71582																						
17	0.160																																		-296.95306	972.61255	2112.87720																						
18	0.170																																		-298.29926	970.67993	2112.82910																						
19	0.180																																		-299.10025	968.59436	2113.05737																						
20	0.190																																		-300.06949	966.35266	2112.76733																						
21	0.200																																		-300.89868	964.43176	2113.19409																						
22	0.210																																		-301.92776	962.10052	2112.74341																						
23	0.220																																		-302.75964	959.95563	2111.99414																						
24	0.230																																		-303.44049	958.19537	2111.81323																						
25	0.240																																		-303.95853	956.36975	2109.66382																						
26	0.250																																		-304.28397	954.56952	2110.53101																						
27	0.260																																		-304.41943	952.86774	2109.61401																						
28	0.270																																		-304.79922	951.59070	2107.52539																						
29	0.280																																		-304.89145	950.38562	2106.72583																						
30	0.290																																		-304.93405	949.26282	2105.63379																						
31	0.300																																		-305.09857	948.37024	2103.25049																						
32	0.310																																		-304.77896	947.38892	2101.21948																						
33	0.320																																		-304.43521	946.70428	2098.94751																						
34	0.330																																		-304.16891	946.02631	2097.73389																						
35	0.340																																		-304.02786	945.80835	2092.77905																						
36	0.350																																		-303.34341	945.15143	2089.59253																						
37	0.360																																		-303.14230	944.86847	2085.30591																						
38	0.370																																		-302.49036	944.63123	2082.42212																						
39	0.380																																		-301.95789	944.68298	2077.01831																						
40	0.390																																		-301.54507	943.96381	2072.97192																						
41	0.400																																		-301.14337	943.63330	2067.89893																						
42	0.410																																		-300.78668	943.35205	2062.19971																						
43	0.420																																		-300.75015	942.62653	2056.57935																						
44	0.430																																		-300.47540	942.22729	2051.15161																						
45	0.440																																		-300.28497	941.74677	2044.77856																						
46	0.450																																		-300.30206	941.03198	2038.22034																						
47	0.460																																		-300.27670	940.82959	2031.15161																						
48	0.470																																		-300.65619	940.05048	2024.32788																						
49	0.480																																		-300.72449	939.44385	2017.44934																						
50	0.490																																		-301.09760	938.58978	2010.65479																						
51	0.500																																		-301.36404	937.75922	2003.52393																						
52	0.510																																		-302.14746	937.17603	1995.23047																						
53	0.520																																		-302.62183	936.47198	1987.03174																						
54	0.530																																		-303.42337	935.62952	1979.62390																						
55	0.540																																		-304.80719	935.12799	1970.83337																						
56	0.550																																		-305.36575	934.66479	1961.57031																						
57	0.560																																		-306.41907	933.44135	1952.76282																						
58	0.570																																		-307.56720	933.99023	1945.62354																						
59	0.580																																		-308.16101	932.66107	1934.93640																						
60	0.590																																		-309.99588	932.16339	1926.29602																						
61	0.600																																		-310.88965	931.85168	1918.89929																						
62	0.610																																		-312.51688	931.12500	1907.88953																						
63	0.620																																		-313.34760	930.69604	1899.29358																						
64	0.630																																		-315.07483	929.83435	1888.86060																						
65	0.640																																		-315.99234	929.04883	1879.18005																						
66	0.650																																		-317.53851	928.18298	1869.51111																						
67	0.660																																		-318.27509	926.73633	1860.15857																						
68	0.670																																		-319.76169	926.02454	1850.08850																						
69	0.680																																		-321.26599	925.46466	1839.63708																						
70	0.690																																		-322.57339	924.18646	1829.47144																						
71	0.700																																		-323.75381	923.76062	1820.17383																						
72	0.710																																		-324.78558	922.60876	1809.33838																						
